<svg width="24" height="24" viewBox="0 0 24 24" fill="none" xmlns="http://www.w3.org/2000/svg">
<path d="M20.9651 19.96H3.03514C2.19514 19.96 1.51514 19.28 1.51514 18.44C1.51514 17.6 2.19514 16.92 3.03514 16.92H20.9651C21.8051 16.92 22.4851 17.6 22.4851 18.44C22.4851 19.28 21.8051 19.96 20.9651 19.96Z" fill="currentColor"/>
<path d="M18.7252 4.03999H5.27516C4.03516 4.03999 3.03516 5.03999 3.03516 6.27999V13.77C3.03516 15.01 4.03516 16.01 5.27516 16.01H18.7152C19.9552 16.01 20.9552 15.01 20.9552 13.77V6.27999C20.9552 5.03999 19.9552 4.03999 18.7152 4.03999H18.7252ZM16.3252 8.36999L13.3452 11.35C13.2052 11.49 13.0052 11.57 12.8052 11.57C12.6052 11.57 12.4052 11.49 12.2652 11.35L10.9452 10.03L8.74516 12.22C8.59516 12.37 8.40516 12.44 8.20516 12.44C8.00516 12.44 7.81516 12.37 7.66516 12.22C7.36516 11.92 7.36516 11.44 7.66516 11.14L10.3952 8.40999C10.5352 8.26999 10.7352 8.18999 10.9352 8.18999C11.1352 8.18999 11.3352 8.26999 11.4752 8.40999L12.7952 9.72999L15.2352 7.28999C15.5352 6.98999 16.0152 6.98999 16.3152 7.28999C16.6152 7.58999 16.6152 8.06999 16.3152 8.36999H16.3252Z" fill="currentColor"/>
</svg>
