<svg width="24" height="24" viewBox="0 0 24 24" fill="none" xmlns="http://www.w3.org/2000/svg">
<path d="M19.3601 3.42H4.64012C3.39012 3.42 2.37012 4.44 2.37012 5.69V14.97C2.37012 16.23 3.39012 17.24 4.64012 17.24H8.56012V19.75C8.56012 20.44 9.36012 20.82 9.89012 20.38L13.6801 17.24H19.3501C20.6101 17.24 21.6201 16.22 21.6201 14.97V5.69C21.6201 4.43 20.6001 3.42 19.3501 3.42H19.3601ZM9.85012 13.05H7.32012C6.91012 13.05 6.57012 12.71 6.57012 12.3C6.57012 11.89 6.91012 11.55 7.32012 11.55H9.85012C10.2601 11.55 10.6001 11.89 10.6001 12.3C10.6001 12.71 10.2601 13.05 9.85012 13.05ZM14.8601 9.47H7.32012C6.91012 9.47 6.57012 9.13 6.57012 8.72C6.57012 8.31 6.91012 7.97 7.32012 7.97H14.8601C15.2701 7.97 15.6101 8.31 15.6101 8.72C15.6101 9.13 15.2701 9.47 14.8601 9.47Z" fill="currentColor"/>
</svg>
