<svg width="24" height="24" viewBox="0 0 24 24" fill="none" xmlns="http://www.w3.org/2000/svg">
<path d="M18.7001 8.39999H17.8001V18.1C17.8001 18.8 17.5001 19.4 17.1001 19.9H18.7001C19.7001 19.9 20.5001 19.1 20.5001 18.1V10.2C20.5001 9.19999 19.7001 8.39999 18.7001 8.39999Z" fill="currentColor"/>
<path d="M15.2 4.10001H5.2C4.3 4.10001 3.5 4.90001 3.5 5.90001V18.1C3.5 19.1 4.3 19.9 5.3 19.9H15.3C16.3 19.9 17.1 19.1 17.1 18.1V5.90001C17 4.90001 16.2 4.10001 15.2 4.10001ZM9.6 10.4H6.4C6.2 10.4 6 10.2 6 10C6 9.80001 6.2 9.60001 6.4 9.60001H9.6C9.8 9.60001 10 9.80001 10 10C10.1 10.2 9.9 10.4 9.6 10.4ZM12.2 7.80001H6.4C6.2 7.80001 6 7.60001 6 7.40001C6 7.20001 6.2 7.00001 6.4 7.00001H12.2C12.5 6.90001 12.7 7.10001 12.7 7.30001C12.7 7.50001 12.5 7.80001 12.2 7.80001Z" fill="currentColor"/>
</svg>
