<svg width="32" height="32" viewBox="0 0 32 32" fill="none" xmlns="http://www.w3.org/2000/svg">
<path d="M15.9933 8.90674C11.5267 8.90674 7.88666 12.5334 7.88666 17.0134C7.88666 19.9467 9.45999 22.5334 11.7933 23.9467V26.6134C11.7933 28.9334 13.6733 30.8134 15.9933 30.8134C18.3133 30.8134 20.2067 28.9334 20.2067 26.6134V23.9467C22.5533 22.5201 24.1133 19.9467 24.1133 17.0134C24.1133 12.5334 20.4733 8.90674 15.9933 8.90674ZM10.3533 19.4001C10.3533 19.4001 10.22 19.4267 10.1667 19.4267C9.87332 19.4267 9.61999 19.2401 9.52666 18.9467C9.33999 18.3201 9.24666 17.6667 9.24666 17.0134C9.24666 16.6667 9.27332 16.3334 9.32666 16.0001C9.37999 15.6401 9.72666 15.3867 10.0867 15.4401C10.4467 15.4934 10.7 15.8267 10.6467 16.2001C10.6067 16.4667 10.5933 16.7334 10.5933 17.0134C10.5933 17.5467 10.6733 18.0667 10.82 18.5734C10.9267 18.9201 10.7267 19.2934 10.3667 19.4001H10.3533ZM10.8067 14.4801C10.6867 14.4801 10.5667 14.4534 10.46 14.3867C10.14 14.1867 10.0467 13.7867 10.2467 13.4667C11.4867 11.4534 13.6467 10.2534 16.0067 10.2534C16.38 10.2534 16.6733 10.5467 16.6733 10.9201C16.6733 11.2934 16.38 11.5867 16.0067 11.5867C14.1133 11.5867 12.38 12.5467 11.38 14.1734C11.26 14.3734 11.0333 14.4934 10.8067 14.4934V14.4801ZM18.2067 26.6134C18.2067 27.8267 17.22 28.8134 15.9933 28.8134C14.7667 28.8134 13.7933 27.8267 13.7933 26.6134V24.8267C13.7933 24.8267 13.8867 24.8401 13.9267 24.8534C14.5933 25.0267 15.2733 25.1334 15.9933 25.1334C16.7133 25.1334 17.4067 25.0267 18.06 24.8534C18.1133 24.8534 18.1533 24.8401 18.2067 24.8267V26.6134Z" fill="#00A1C2"/>
<path d="M17.18 7.39986C17.7267 7.39986 18.18 6.94652 18.18 6.39986V2.18652C18.18 1.63986 17.7267 1.18652 17.18 1.18652C16.6333 1.18652 16.18 1.63986 16.18 2.18652V6.39986C16.18 6.94652 16.6333 7.39986 17.18 7.39986Z" fill="#00A1C2"/>
<path d="M8.92666 9.25333C9.12666 9.45333 9.38 9.54666 9.63333 9.54666C9.88666 9.54666 10.14 9.45333 10.34 9.25333C10.7267 8.86666 10.7267 8.22666 10.34 7.83999L7.36666 4.86666C6.98 4.47999 6.34 4.47999 5.95333 4.86666C5.56666 5.25333 5.56666 5.89333 5.95333 6.27999L8.92666 9.25333Z" fill="#00A1C2"/>
<path d="M5.82002 14.3999H1.60669C1.06002 14.3999 0.606689 14.8532 0.606689 15.3999C0.606689 15.9466 1.06002 16.3999 1.60669 16.3999H5.82002C6.36669 16.3999 6.82002 15.9466 6.82002 15.3999C6.82002 14.8532 6.36669 14.3999 5.82002 14.3999Z" fill="#00A1C2"/>
<path d="M30.3933 16.7598H26.18C25.6333 16.7598 25.18 17.2131 25.18 17.7598C25.18 18.3064 25.6333 18.7598 26.18 18.7598H30.3933C30.94 18.7598 31.3933 18.3064 31.3933 17.7598C31.3933 17.2131 30.94 16.7598 30.3933 16.7598Z" fill="#00A1C2"/>
<path d="M27.7267 6.53316C27.34 6.1465 26.7 6.1465 26.3133 6.53316L23.34 9.5065C22.9533 9.89316 22.9533 10.5332 23.34 10.9198C23.54 11.1198 23.7933 11.2132 24.0467 11.2132C24.3 11.2132 24.5533 11.1198 24.7533 10.9198L27.7267 7.9465C28.1133 7.55983 28.1133 6.91983 27.7267 6.53316Z" fill="#00A1C2"/>
</svg>
