<svg width="24" height="24" viewBox="0 0 24 24" fill="none" xmlns="http://www.w3.org/2000/svg">
<path d="M12.6999 21.25H5.8999C4.7999 21.25 3.8999 20.35 3.8999 19.25V4.75C3.8999 3.65 4.7999 2.75 5.8999 2.75H17.7999C18.8999 2.75 19.7999 3.65 19.7999 4.75V11.65" stroke="currentColor" stroke-width="1.5" stroke-miterlimit="10" stroke-linecap="round" stroke-linejoin="round"/>
<path d="M7.2998 6.55H14.1998" stroke="currentColor" stroke-width="1.5" stroke-miterlimit="10" stroke-linecap="round" stroke-linejoin="round"/>
<path d="M7.2998 9.64999H11.0998" stroke="currentColor" stroke-width="1.5" stroke-miterlimit="10" stroke-linecap="round" stroke-linejoin="round"/>
<path d="M14.8998 19.15C16.888 19.15 18.4998 17.5382 18.4998 15.55C18.4998 13.5618 16.888 11.95 14.8998 11.95C12.9116 11.95 11.2998 13.5618 11.2998 15.55C11.2998 17.5382 12.9116 19.15 14.8998 19.15Z" stroke="currentColor" stroke-width="1.5" stroke-miterlimit="10" stroke-linecap="round" stroke-linejoin="round"/>
<path d="M20.0998 20.75L17.4998 18.05" stroke="currentColor" stroke-width="1.5" stroke-miterlimit="10" stroke-linecap="round" stroke-linejoin="round"/>
</svg>
